<?xml version="1.0" encoding="UTF-8"?>
<svg width="588px" height="284px" viewBox="0 0 588 284" version="1.1" xmlns="http://www.w3.org/2000/svg" xmlns:xlink="http://www.w3.org/1999/xlink">
    <!-- Generator: sketchtool 49 (51002) - http://www.bohemiancoding.com/sketch -->
    <title>2646F96B-0A81-4310-8FAD-B849EE415D23</title>
    <desc>Created with sketchtool.</desc>
    <defs></defs>
    <g id="Page-3" stroke="none" stroke-width="1" fill="none" fill-rule="evenodd">
        <g id="002" transform="translate(-425.000000, -335.000000)">
            <g id="Asset-42" transform="translate(424.893204, 335.738824)">
                <g>
                    <polygon id="Shape" stroke="#7DA6D3" fill="#FFFFFF" fill-rule="nonzero" points="563.078024 282.661893 455.815859 282.661893 479.503035 144.810437 539.377035 144.810437"></polygon>
                    <rect id="Rectangle-path" stroke="#7DA6D3" fill="#FFFFFF" fill-rule="nonzero" x="479.503035" y="114.359709" width="59.874" height="29.2609223"></rect>
                    <rect id="Rectangle-path" stroke="#7DA6D3" fill="#E5ECF5" fill-rule="nonzero" x="475.773859" y="141.033495" width="66.2550353" height="4.15048544"></rect>
                    <rect id="Rectangle-path" stroke="#7DA6D3" fill="#E5ECF5" fill-rule="nonzero" x="475.773859" y="111.993932" width="66.2550353" height="4.15048544"></rect>
                    <rect id="Rectangle-path" fill-opacity="0.1" fill="#7DA6D3" fill-rule="nonzero" x="479.503035" y="116.836165" width="59.874" height="4.59320388"></rect>
                    <polygon id="Shape" fill-opacity="0.1" fill="#7DA6D3" fill-rule="nonzero" points="478.729576 149.334466 540.164306 149.334466 539.418471 144.962621 479.475412 144.962621"></polygon>
                    <path d="M496.146212,282.661893 L483.715624,282.661893 L483.715624,218.025 C483.700411,211.684032 478.568402,206.549593 472.238047,206.54199 L444.379718,206.54199 L444.379718,194.159709 L472.362353,194.159709 C485.519783,194.167331 496.186224,204.845489 496.201459,218.025 L496.146212,282.661893 Z" id="Shape" fill-opacity="0.1" fill="#7DA6D3" fill-rule="nonzero"></path>
                    <path d="M486.477976,282.661893 L474.047388,282.661893 L474.047388,218.025 C474.032176,211.684032 468.900166,206.549593 462.569812,206.54199 L434.711482,206.54199 L434.711482,194.159709 L462.694118,194.159709 C475.851547,194.167331 486.517988,204.845489 486.533224,218.025 L486.477976,282.661893 Z" id="Shape" stroke="#7DA6D3" fill="#E5ECF5" fill-rule="nonzero"></path>
                    <rect id="Rectangle-path" stroke="#7DA6D3" fill="#F6F6F6" fill-rule="nonzero" x="57.5536235" y="239.801214" width="27.2644235" height="42.8606796"></rect>
                    <polyline id="Shape" stroke-opacity="0.2" stroke="#7DA6D3" points="51.3383294 247.576456 89.9836471 261.757282 51.6836235 270.390291 83.0087059 282.606553"></polyline>
                    <polyline id="Shape" stroke="#7DA6D3" points="51.3383294 244.809466 89.9836471 258.990291 51.6836235 267.623301 90.2460706 282.661893"></polyline>
                    <rect id="Rectangle-path" stroke="#7DA6D3" fill="#E5ECF5" fill-rule="nonzero" x="48.3135529" y="239.635194" width="3.10764706" height="43.040534"></rect>
                    <rect id="Rectangle-path" stroke="#7DA6D3" fill="#E5ECF5" fill-rule="nonzero" x="90.2460706" y="239.635194" width="3.10764706" height="43.040534"></rect>
                    <path d="M99.8176235,241.295388 L41.8082118,241.295388 L41.8082118,173.504126 L67.7190824,163.81966 C69.9451219,162.982152 72.3989252,162.982152 74.6249647,163.81966 L99.7485647,173.407282 L99.8176235,241.295388 Z" id="Shape" stroke="#7DA6D3" fill="#FFFFFF" fill-rule="nonzero"></path>
                    <rect id="Rectangle-path" stroke="#7DA6D3" fill="#FFFFFF" fill-rule="nonzero" x="282.284847" y="0.691747573" width="23.8114824" height="156.570146"></rect>
                    <rect id="Rectangle-path" stroke="#7DA6D3" fill="#E5ECF5" fill-rule="nonzero" x="282.284847" y="18.9538835" width="23.8114824" height="24.8614078"></rect>
                    <rect id="Rectangle-path" stroke="#7DA6D3" fill="#E5ECF5" fill-rule="nonzero" x="282.284847" y="52.143932" width="23.8114824" height="6.62694175"></rect>
                    <path d="M0.690588235,282.661893 L24.8611765,282.661893" id="Shape" stroke="#7DA6D3" stroke-linecap="round"></path>
                    <path d="M28.0793176,282.661893 L137.882847,282.661893" id="Shape" stroke="#7DA6D3" stroke-linecap="round"></path>
                    <path d="M141.335788,282.661893 L220.753435,282.661893" id="Shape" stroke="#7DA6D3" stroke-linecap="round"></path>
                    <path d="M225.822353,282.661893 L352.2,282.661893" id="Shape" stroke="#7DA6D3" stroke-linecap="round"></path>
                    <path d="M355.418141,282.661893 L503.894612,282.661893" id="Shape" stroke="#7DA6D3" stroke-linecap="round"></path>
                    <path d="M507.347553,282.661893 L586.7652,282.661893" id="Shape" stroke="#7DA6D3" stroke-linecap="round"></path>
                    <rect id="Rectangle-path" stroke="#7DA6D3" fill="#F6F6F6" fill-rule="nonzero" x="355.501012" y="77.6970874" width="81.8347059" height="20.1298544"></rect>
                    <rect id="Rectangle-path" stroke="#7DA6D3" fill="#F6F6F6" fill-rule="nonzero" x="349.824376" y="84.6145631" width="93.1741647" height="18.7463592"></rect>
                    <path d="M198.626988,94.7140777 L198.626988,224.596602" id="Shape" stroke="#7DA6D3"></path>
                    <path d="M188.019553,95.0876214 L188.019553,224.596602" id="Shape" stroke="#7DA6D3"></path>
                    <path d="M188.0748,103.098058 L198.682235,103.098058" id="Shape" stroke="#7DA6D3"></path>
                    <path d="M188.0748,112.68568 L198.682235,112.68568" id="Shape" stroke="#7DA6D3"></path>
                    <path d="M188.0748,122.273301 L198.682235,122.273301" id="Shape" stroke="#7DA6D3"></path>
                    <path d="M188.0748,131.874757 L198.682235,131.874757" id="Shape" stroke="#7DA6D3"></path>
                    <path d="M188.0748,141.462379 L198.682235,141.462379" id="Shape" stroke="#7DA6D3"></path>
                    <path d="M188.0748,151.05 L198.682235,151.05" id="Shape" stroke="#7DA6D3"></path>
                    <path d="M188.0748,160.651456 L198.682235,160.651456" id="Shape" stroke="#7DA6D3"></path>
                    <path d="M188.0748,170.239078 L198.682235,170.239078" id="Shape" stroke="#7DA6D3"></path>
                    <path d="M188.0748,179.826699 L198.682235,179.826699" id="Shape" stroke="#7DA6D3"></path>
                    <path d="M188.0748,189.428155 L198.682235,189.428155" id="Shape" stroke="#7DA6D3"></path>
                    <path d="M188.0748,199.015777 L198.682235,199.015777" id="Shape" stroke="#7DA6D3"></path>
                    <path d="M188.0748,208.603398 L198.682235,208.603398" id="Shape" stroke="#7DA6D3"></path>
                    <path d="M209.6764,95.0737864 L187.508518,95.0737864" id="Shape" stroke="#7DA6D3"></path>
                    <rect id="Rectangle-path" stroke="#7DA6D3" fill="#FFFFFF" fill-rule="nonzero" x="220.767247" y="37.6864078" width="23.8114824" height="173.172087"></rect>
                    <rect id="Rectangle-path" stroke="#7DA6D3" fill="#E5ECF5" fill-rule="nonzero" x="220.767247" y="49.9718447" width="23.8114824" height="21.5686893"></rect>
                    <rect id="Rectangle-path" stroke="#7DA6D3" fill="#E5ECF5" fill-rule="nonzero" x="220.767247" y="77.9599515" width="23.8114824" height="6.30873786"></rect>
                    <rect id="Rectangle-path" stroke="#7DA6D3" fill="#FFFFFF" fill-rule="nonzero" x="203.516353" y="95.0599515" width="252.589553" height="187.601942"></rect>
                    <rect id="Rectangle-path" stroke="#7DA6D3" fill="#E5ECF5" fill-rule="nonzero" x="203.516353" y="95.0599515" width="252.589553" height="6.83446602"></rect>
                    <rect id="Rectangle-path" fill-opacity="0.1" fill="#7DA6D3" fill-rule="nonzero" x="203.516353" y="101.977427" width="252.589553" height="3.22354369"></rect>
                    <rect id="Rectangle-path" fill-opacity="0.1" fill="#7DA6D3" fill-rule="nonzero" x="348.760871" y="91.1308252" width="93.7542588" height="3.22354369"></rect>
                    <rect id="Rectangle-path" fill-opacity="0.1" fill="#7DA6D3" fill-rule="nonzero" x="221.002047" y="91.490534" width="23.6595529" height="3.25121359"></rect>
                    <rect id="Rectangle-path" fill-opacity="0.1" fill="#7DA6D3" fill-rule="nonzero" x="282.809694" y="91.490534" width="23.6595529" height="3.25121359"></rect>
                    <rect id="Rectangle-path" fill-opacity="0.1" fill="#7DA6D3" fill-rule="nonzero" x="355.666753" y="80.934466" width="81.3236706" height="3.22354369"></rect>
                    <g id="Group" opacity="0.1" style="mix-blend-mode: multiply;" transform="translate(247.230588, 123.131068)" fill="#7DA6D3" fill-rule="nonzero">
                        <rect id="Rectangle-path" x="0.538658824" y="1.13446602" width="15.5244235" height="21.2643204"></rect>
                        <rect id="Rectangle-path" x="18.6596941" y="1.13446602" width="15.5244235" height="21.2643204"></rect>
                        <rect id="Rectangle-path" x="44.0180941" y="1.13446602" width="15.5244235" height="21.2643204"></rect>
                        <rect id="Rectangle-path" x="62.1391294" y="1.13446602" width="15.5244235" height="21.2643204"></rect>
                        <rect id="Rectangle-path" x="87.4975294" y="1.13446602" width="15.5244235" height="21.2643204"></rect>
                        <rect id="Rectangle-path" x="105.618565" y="1.13446602" width="15.5244235" height="21.2643204"></rect>
                        <rect id="Rectangle-path" x="130.976965" y="1.13446602" width="15.5244235" height="21.2643204"></rect>
                        <rect id="Rectangle-path" x="149.098" y="1.13446602" width="15.5244235" height="21.2643204"></rect>
                        <rect id="Rectangle-path" x="130.976965" y="33.632767" width="15.5244235" height="21.2643204"></rect>
                        <rect id="Rectangle-path" x="149.098" y="33.632767" width="15.5244235" height="21.2643204"></rect>
                        <rect id="Rectangle-path" x="87.4975294" y="33.632767" width="15.5244235" height="21.2643204"></rect>
                        <rect id="Rectangle-path" x="105.618565" y="33.632767" width="15.5244235" height="21.2643204"></rect>
                        <rect id="Rectangle-path" x="87.4975294" y="66.117233" width="15.5244235" height="21.2643204"></rect>
                        <rect id="Rectangle-path" x="105.618565" y="66.117233" width="15.5244235" height="21.2643204"></rect>
                        <rect id="Rectangle-path" x="62.1391294" y="33.632767" width="15.5244235" height="21.2643204"></rect>
                        <rect id="Rectangle-path" x="62.1391294" y="66.117233" width="15.5244235" height="21.2643204"></rect>
                        <rect id="Rectangle-path" x="130.976965" y="66.117233" width="15.5244235" height="21.2643204"></rect>
                        <rect id="Rectangle-path" x="149.098" y="66.117233" width="15.5244235" height="21.2643204"></rect>
                    </g>
                    <rect id="Rectangle-path" fill="#E5ECF5" fill-rule="nonzero" x="248.459835" y="122.190291" width="14.1432471" height="19.8808252"></rect>
                    <path d="M261.912494,122.882039 L261.912494,141.379369 L249.150424,141.379369 L249.150424,122.882039 L261.912494,122.882039 Z M263.293671,121.498544 L247.769247,121.498544 L247.769247,142.762864 L263.293671,142.762864 L263.293671,121.498544 Z" id="Shape" fill="#7DA6D3" fill-rule="nonzero"></path>
                    <rect id="Rectangle-path" fill="#E5ECF5" fill-rule="nonzero" x="266.580871" y="122.190291" width="14.1432471" height="19.8808252"></rect>
                    <path d="M280.033529,122.882039 L280.033529,141.379369 L267.271459,141.379369 L267.271459,122.882039 L280.033529,122.882039 Z M281.414706,121.498544 L265.890282,121.498544 L265.890282,142.762864 L281.414706,142.762864 L281.414706,121.498544 Z" id="Shape" fill="#7DA6D3" fill-rule="nonzero"></path>
                    <rect id="Rectangle-path" fill="#E5ECF5" fill-rule="nonzero" x="291.939271" y="122.190291" width="14.1432471" height="19.8808252"></rect>
                    <path d="M305.391929,122.882039 L305.391929,141.379369 L292.629859,141.379369 L292.629859,122.882039 L305.391929,122.882039 Z M306.773106,121.498544 L291.248682,121.498544 L291.248682,142.762864 L306.773106,142.762864 L306.773106,121.498544 Z" id="Shape" fill="#7DA6D3" fill-rule="nonzero"></path>
                    <rect id="Rectangle-path" fill="#E5ECF5" fill-rule="nonzero" x="310.060306" y="122.190291" width="14.1432471" height="19.8808252"></rect>
                    <path d="M323.512965,122.882039 L323.512965,141.379369 L310.764706,141.379369 L310.764706,122.882039 L323.526776,122.882039 L323.512965,122.882039 Z M324.907953,121.498544 L309.383529,121.498544 L309.383529,142.762864 L324.907953,142.762864 L324.907953,121.498544 Z" id="Shape" fill="#7DA6D3" fill-rule="nonzero"></path>
                    <rect id="Rectangle-path" fill="#E5ECF5" fill-rule="nonzero" x="335.418706" y="122.190291" width="14.1432471" height="19.8808252"></rect>
                    <path d="M348.871365,122.882039 L348.871365,141.379369 L336.109294,141.379369 L336.109294,122.882039 L348.871365,122.882039 Z M350.252541,121.498544 L334.728118,121.498544 L334.728118,142.762864 L350.252541,142.762864 L350.252541,121.498544 Z" id="Shape" fill="#7DA6D3" fill-rule="nonzero"></path>
                    <rect id="Rectangle-path" fill="#E5ECF5" fill-rule="nonzero" x="353.539741" y="122.190291" width="14.1432471" height="19.8808252"></rect>
                    <path d="M366.9924,122.882039 L366.9924,141.379369 L354.230329,141.379369 L354.230329,122.882039 L366.9924,122.882039 Z M368.373576,121.498544 L352.849153,121.498544 L352.849153,142.762864 L368.373576,142.762864 L368.373576,121.498544 Z" id="Shape" fill="#7DA6D3" fill-rule="nonzero"></path>
                    <rect id="Rectangle-path" fill="#E5ECF5" fill-rule="nonzero" x="378.898141" y="122.190291" width="14.1432471" height="19.8808252"></rect>
                    <path d="M392.3508,122.882039 L392.3508,141.379369 L379.588729,141.379369 L379.588729,122.882039 L392.3508,122.882039 Z M393.731976,121.498544 L378.207553,121.498544 L378.207553,142.762864 L393.731976,142.762864 L393.731976,121.498544 Z" id="Shape" fill="#7DA6D3" fill-rule="nonzero"></path>
                    <rect id="Rectangle-path" fill="#E5ECF5" fill-rule="nonzero" x="397.019176" y="122.190291" width="14.1432471" height="19.8808252"></rect>
                    <path d="M410.471835,122.882039 L410.471835,141.379369 L397.778824,141.379369 L397.778824,122.882039 L410.540894,122.882039 L410.471835,122.882039 Z M411.922071,121.498544 L396.397647,121.498544 L396.397647,142.762864 L411.922071,142.762864 L411.922071,121.498544 Z" id="Shape" fill="#7DA6D3" fill-rule="nonzero"></path>
                    <rect id="Rectangle-path" fill="#E5ECF5" fill-rule="nonzero" x="378.898141" y="154.688592" width="14.1432471" height="19.8808252"></rect>
                    <path d="M392.3508,155.38034 L392.3508,173.863835 L379.588729,173.863835 L379.588729,155.38034 L392.3508,155.38034 Z M393.731976,153.996845 L378.207553,153.996845 L378.207553,175.24733 L393.731976,175.24733 L393.731976,153.996845 Z" id="Shape" fill="#7DA6D3" fill-rule="nonzero"></path>
                    <rect id="Rectangle-path" fill="#E5ECF5" fill-rule="nonzero" x="397.019176" y="154.688592" width="14.1432471" height="19.8808252"></rect>
                    <path d="M410.471835,155.38034 L410.471835,173.863835 L397.778824,173.863835 L397.778824,155.38034 L410.540894,155.38034 L410.471835,155.38034 Z M411.922071,153.996845 L396.397647,153.996845 L396.397647,175.24733 L411.922071,175.24733 L411.922071,153.996845 Z" id="Shape" fill="#7DA6D3" fill-rule="nonzero"></path>
                    <rect id="Rectangle-path" fill="#E5ECF5" fill-rule="nonzero" x="335.418706" y="154.688592" width="14.1432471" height="19.8808252"></rect>
                    <path d="M348.871365,155.38034 L348.871365,173.863835 L336.109294,173.863835 L336.109294,155.38034 L348.871365,155.38034 Z M350.252541,153.996845 L334.728118,153.996845 L334.728118,175.24733 L350.252541,175.24733 L350.252541,153.996845 Z" id="Shape" fill="#7DA6D3" fill-rule="nonzero"></path>
                    <rect id="Rectangle-path" fill="#E5ECF5" fill-rule="nonzero" x="353.539741" y="154.688592" width="14.1432471" height="19.8808252"></rect>
                    <path d="M366.9924,155.38034 L366.9924,173.863835 L354.230329,173.863835 L354.230329,155.38034 L366.9924,155.38034 Z M368.373576,153.996845 L352.849153,153.996845 L352.849153,175.24733 L368.373576,175.24733 L368.373576,153.996845 Z" id="Shape" fill="#7DA6D3" fill-rule="nonzero"></path>
                    <rect id="Rectangle-path" fill="#E5ECF5" fill-rule="nonzero" x="335.418706" y="187.173058" width="14.1432471" height="19.8808252"></rect>
                    <path d="M348.871365,187.864806 L348.871365,206.362136 L336.109294,206.362136 L336.109294,187.864806 L348.871365,187.864806 Z M350.252541,186.481311 L334.728118,186.481311 L334.728118,207.745631 L350.252541,207.745631 L350.252541,186.481311 Z" id="Shape" fill="#7DA6D3" fill-rule="nonzero"></path>
                    <rect id="Rectangle-path" fill="#E5ECF5" fill-rule="nonzero" x="353.539741" y="187.173058" width="14.1432471" height="19.8808252"></rect>
                    <path d="M366.9924,187.864806 L366.9924,206.362136 L354.230329,206.362136 L354.230329,187.864806 L366.9924,187.864806 Z M368.373576,186.481311 L352.849153,186.481311 L352.849153,207.745631 L368.373576,207.745631 L368.373576,186.481311 Z" id="Shape" fill="#7DA6D3" fill-rule="nonzero"></path>
                    <rect id="Rectangle-path" fill="#E5ECF5" fill-rule="nonzero" x="310.060306" y="154.688592" width="14.1432471" height="19.8808252"></rect>
                    <path d="M323.512965,155.38034 L323.512965,173.863835 L310.764706,173.863835 L310.764706,155.38034 L323.526776,155.38034 L323.512965,155.38034 Z M324.907953,153.996845 L309.383529,153.996845 L309.383529,175.24733 L324.907953,175.24733 L324.907953,153.996845 Z" id="Shape" fill="#7DA6D3" fill-rule="nonzero"></path>
                    <rect id="Rectangle-path" fill="#E5ECF5" fill-rule="nonzero" x="310.060306" y="187.173058" width="14.1432471" height="19.8808252"></rect>
                    <path d="M323.512965,187.864806 L323.512965,206.362136 L310.764706,206.362136 L310.764706,187.864806 L323.526776,187.864806 L323.512965,187.864806 Z M324.907953,186.481311 L309.383529,186.481311 L309.383529,207.745631 L324.907953,207.745631 L324.907953,186.481311 Z" id="Shape" fill="#7DA6D3" fill-rule="nonzero"></path>
                    <rect id="Rectangle-path" fill="#E5ECF5" fill-rule="nonzero" x="378.898141" y="187.173058" width="14.1432471" height="19.8808252"></rect>
                    <path d="M392.3508,187.864806 L392.3508,206.362136 L379.588729,206.362136 L379.588729,187.864806 L392.3508,187.864806 Z M393.731976,186.481311 L378.207553,186.481311 L378.207553,207.745631 L393.731976,207.745631 L393.731976,186.481311 Z" id="Shape" fill="#7DA6D3" fill-rule="nonzero"></path>
                    <rect id="Rectangle-path" fill="#E5ECF5" fill-rule="nonzero" x="397.019176" y="187.173058" width="14.1432471" height="19.8808252"></rect>
                    <path d="M410.471835,187.864806 L410.471835,206.362136 L397.778824,206.362136 L397.778824,187.864806 L410.540894,187.864806 L410.471835,187.864806 Z M411.922071,186.481311 L396.397647,186.481311 L396.397647,207.745631 L411.922071,207.745631 L411.922071,186.481311 Z" id="Shape" fill="#7DA6D3" fill-rule="nonzero"></path>
                    <rect id="Rectangle-path" stroke="#7DA6D3" fill="#FFFFFF" fill-rule="nonzero" x="144.1672" y="20.0606796" width="23.8114824" height="160.720631"></rect>
                    <rect id="Rectangle-path" stroke="#7DA6D3" fill="#E5ECF5" fill-rule="nonzero" x="144.1672" y="38.3228155" width="23.8114824" height="24.8614078"></rect>
                    <rect id="Rectangle-path" stroke="#7DA6D3" fill="#E5ECF5" fill-rule="nonzero" x="144.1672" y="71.5128641" width="23.8114824" height="6.62694175"></rect>
                    <rect id="Rectangle-path" fill-opacity="0.1" fill="#7DA6D3" fill-rule="nonzero" x="203.516353" y="147.591262" width="122.855647" height="135.070631"></rect>
                    <rect id="Rectangle-path" stroke="#7DA6D3" fill="#FFFFFF" fill-rule="nonzero" x="127.593082" y="153.125243" width="189.096871" height="129.53665"></rect>
                    <rect id="Rectangle-path" stroke="#7DA6D3" fill="#E5ECF5" fill-rule="nonzero" x="127.593082" y="153.125243" width="189.096871" height="6.11504854"></rect>
                    <rect id="Rectangle-path" fill-opacity="0.1" fill="#7DA6D3" fill-rule="nonzero" x="127.593082" y="159.613835" width="189.096871" height="2.98834951"></rect>
                    <g id="Group" opacity="0.1" style="mix-blend-mode: multiply;" transform="translate(139.498824, 178.470874)" fill="#7DA6D3" fill-rule="nonzero">
                        <rect id="Rectangle-path" x="0.607717647" y="0.152184466" width="15.5244235" height="21.2643204"></rect>
                        <rect id="Rectangle-path" x="18.7287529" y="0.152184466" width="15.5244235" height="21.2643204"></rect>
                        <rect id="Rectangle-path" x="44.0871529" y="0.152184466" width="15.5244235" height="21.2643204"></rect>
                        <rect id="Rectangle-path" x="62.2081882" y="0.152184466" width="15.5244235" height="21.2643204"></rect>
                        <rect id="Rectangle-path" x="87.5665882" y="0.152184466" width="15.5244235" height="21.2643204"></rect>
                        <rect id="Rectangle-path" x="105.687624" y="0.152184466" width="15.5244235" height="21.2643204"></rect>
                        <rect id="Rectangle-path" x="131.046024" y="0.152184466" width="15.5244235" height="21.2643204"></rect>
                        <rect id="Rectangle-path" x="149.167059" y="0.152184466" width="15.5244235" height="21.2643204"></rect>
                    </g>
                    <path d="M111.778612,276.187136 L122.386047,276.187136" id="Shape" stroke="#7DA6D3"></path>
                    <path d="M122.3308,152.779369 L122.3308,282.661893" id="Shape" stroke="#7DA6D3"></path>
                    <path d="M111.723365,153.166748 L111.723365,282.661893" id="Shape" stroke="#7DA6D3"></path>
                    <path d="M111.778612,161.16335 L122.386047,161.16335" id="Shape" stroke="#7DA6D3"></path>
                    <path d="M111.778612,170.750971 L122.386047,170.750971" id="Shape" stroke="#7DA6D3"></path>
                    <path d="M111.778612,180.352427 L122.386047,180.352427" id="Shape" stroke="#7DA6D3"></path>
                    <path d="M111.778612,189.940049 L122.386047,189.940049" id="Shape" stroke="#7DA6D3"></path>
                    <path d="M111.778612,199.52767 L122.386047,199.52767" id="Shape" stroke="#7DA6D3"></path>
                    <path d="M111.778612,209.129126 L122.386047,209.129126" id="Shape" stroke="#7DA6D3"></path>
                    <path d="M111.778612,218.716748 L122.386047,218.716748" id="Shape" stroke="#7DA6D3"></path>
                    <path d="M111.778612,228.304369 L122.386047,228.304369" id="Shape" stroke="#7DA6D3"></path>
                    <path d="M111.778612,237.905825 L122.386047,237.905825" id="Shape" stroke="#7DA6D3"></path>
                    <path d="M111.778612,247.493447 L122.386047,247.493447" id="Shape" stroke="#7DA6D3"></path>
                    <path d="M111.778612,257.081068 L122.386047,257.081068" id="Shape" stroke="#7DA6D3"></path>
                    <path d="M111.778612,266.668689 L122.386047,266.668689" id="Shape" stroke="#7DA6D3"></path>
                    <path d="M133.380212,153.139078 L111.212329,153.139078" id="Shape" stroke="#7DA6D3"></path>
                    <rect id="Rectangle-path" stroke="#7DA6D3" fill="#E5ECF5" fill-rule="nonzero" x="41.8496471" y="190.548786" width="57.9679765" height="35.4174757"></rect>
                    <g id="Group" opacity="0.2" style="mix-blend-mode: multiply;" transform="translate(48.341176, 174.320388)" stroke="#7DA6D3">
                        <path d="M1.54691765,1.02378641 L1.54691765,66.8643204" id="Shape"></path>
                        <path d="M10.8008,1.02378641 L10.8008,66.8643204" id="Shape"></path>
                        <path d="M1.35355294,6.23956311 L10.6074353,6.23956311" id="Shape"></path>
                        <path d="M1.35355294,13.1847087 L10.6074353,13.1847087" id="Shape"></path>
                        <path d="M1.35355294,20.1298544 L10.6074353,20.1298544" id="Shape"></path>
                        <path d="M1.35355294,27.088835 L10.6074353,27.088835" id="Shape"></path>
                        <path d="M1.35355294,34.0339806 L10.6074353,34.0339806" id="Shape"></path>
                        <path d="M1.35355294,40.9929612 L10.6074353,40.9929612" id="Shape"></path>
                        <path d="M1.35355294,47.9381068 L10.6074353,47.9381068" id="Shape"></path>
                        <path d="M1.35355294,61.842233 L10.6074353,61.842233" id="Shape"></path>
                        <path d="M1.35355294,54.8970874 L10.6074353,54.8970874" id="Shape"></path>
                    </g>
                    <path d="M47.1257412,175.344175 L47.1257412,241.184709" id="Shape" stroke="#7DA6D3"></path>
                    <path d="M56.3796235,175.344175 L56.3796235,241.184709" id="Shape" stroke="#7DA6D3"></path>
                    <path d="M46.9323765,180.559951 L56.1862588,180.559951" id="Shape" stroke="#7DA6D3"></path>
                    <path d="M46.9323765,187.505097 L56.1862588,187.505097" id="Shape" stroke="#7DA6D3"></path>
                    <path d="M46.9323765,194.450243 L56.1862588,194.450243" id="Shape" stroke="#7DA6D3"></path>
                    <path d="M46.9323765,201.409223 L56.1862588,201.409223" id="Shape" stroke="#7DA6D3"></path>
                    <path d="M46.9323765,208.354369 L56.1862588,208.354369" id="Shape" stroke="#7DA6D3"></path>
                    <path d="M46.9323765,215.31335 L56.1862588,215.31335" id="Shape" stroke="#7DA6D3"></path>
                    <path d="M46.9323765,222.258495 L56.1862588,222.258495" id="Shape" stroke="#7DA6D3"></path>
                    <path d="M46.9323765,236.162621 L56.1862588,236.162621" id="Shape" stroke="#7DA6D3"></path>
                    <path d="M46.9323765,229.217476 L56.1862588,229.217476" id="Shape" stroke="#7DA6D3"></path>
                    <rect id="Rectangle-path" fill-opacity="0.1" fill="#7DA6D3" fill-rule="nonzero" x="41.8496471" y="176.257282" width="57.9679765" height="1.9092233"></rect>
                    <rect id="Rectangle-path" fill-opacity="0.1" fill="#7DA6D3" fill-rule="nonzero" x="57.2083294" y="241.682767" width="27.3887294" height="2.4211165"></rect>
                    <path d="M99.8176235,241.295388 L41.8082118,241.295388 L41.8082118,173.504126 L67.7190824,163.81966 C69.9451219,162.982152 72.3989252,162.982152 74.6249647,163.81966 L99.7485647,173.407282 L99.8176235,241.295388 Z" id="Shape" stroke="#7DA6D3"></path>
                    <rect id="Rectangle-path" fill="#E5ECF5" fill-rule="nonzero" x="140.797129" y="176.547816" width="14.1432471" height="19.8808252"></rect>
                    <path d="M154.249788,177.239563 L154.249788,195.723058 L141.487718,195.723058 L141.487718,177.239563 L154.249788,177.239563 Z M155.630965,175.856068 L140.106541,175.856068 L140.106541,197.106553 L155.630965,197.106553 L155.630965,175.856068 Z" id="Shape" fill="#7DA6D3" fill-rule="nonzero"></path>
                    <rect id="Rectangle-path" fill="#E5ECF5" fill-rule="nonzero" x="158.918165" y="176.547816" width="14.1432471" height="19.8808252"></rect>
                    <path d="M172.370824,177.239563 L172.370824,195.723058 L159.608753,195.723058 L159.608753,177.239563 L172.370824,177.239563 Z M173.752,175.856068 L158.227576,175.856068 L158.227576,197.106553 L173.752,197.106553 L173.752,175.856068 Z" id="Shape" fill="#7DA6D3" fill-rule="nonzero"></path>
                    <rect id="Rectangle-path" fill="#E5ECF5" fill-rule="nonzero" x="184.276565" y="176.547816" width="14.1432471" height="19.8808252"></rect>
                    <path d="M197.729224,177.239563 L197.729224,195.723058 L184.967153,195.723058 L184.967153,177.239563 L197.729224,177.239563 Z M199.1104,175.856068 L183.585976,175.856068 L183.585976,197.106553 L199.1104,197.106553 L199.1104,175.856068 Z" id="Shape" fill="#7DA6D3" fill-rule="nonzero"></path>
                    <rect id="Rectangle-path" fill="#E5ECF5" fill-rule="nonzero" x="202.3976" y="176.547816" width="14.1432471" height="19.8808252"></rect>
                    <path d="M215.850259,177.239563 L215.850259,195.723058 L203.032941,195.723058 L203.032941,177.239563 L215.795012,177.239563 L215.850259,177.239563 Z M217.176188,175.856068 L201.651765,175.856068 L201.651765,197.106553 L217.176188,197.106553 L217.176188,175.856068 Z" id="Shape" fill="#7DA6D3" fill-rule="nonzero"></path>
                    <rect id="Rectangle-path" fill="#E5ECF5" fill-rule="nonzero" x="227.756" y="176.547816" width="14.1432471" height="19.8808252"></rect>
                    <path d="M241.208659,177.239563 L241.208659,195.723058 L228.446588,195.723058 L228.446588,177.239563 L241.208659,177.239563 Z M242.589835,175.856068 L227.065412,175.856068 L227.065412,197.106553 L242.589835,197.106553 L242.589835,175.856068 Z" id="Shape" fill="#7DA6D3" fill-rule="nonzero"></path>
                    <rect id="Rectangle-path" fill="#E5ECF5" fill-rule="nonzero" x="245.877035" y="176.547816" width="14.1432471" height="19.8808252"></rect>
                    <path d="M259.329694,177.239563 L259.329694,195.723058 L246.567624,195.723058 L246.567624,177.239563 L259.329694,177.239563 Z M260.710871,175.856068 L245.186447,175.856068 L245.186447,197.106553 L260.710871,197.106553 L260.710871,175.856068 Z" id="Shape" fill="#7DA6D3" fill-rule="nonzero"></path>
                    <rect id="Rectangle-path" fill="#E5ECF5" fill-rule="nonzero" x="271.235435" y="176.547816" width="14.1432471" height="19.8808252"></rect>
                    <path d="M284.688094,177.239563 L284.688094,195.723058 L271.926024,195.723058 L271.926024,177.239563 L284.688094,177.239563 Z M286.069271,175.856068 L270.544847,175.856068 L270.544847,197.106553 L286.069271,197.106553 L286.069271,175.856068 Z" id="Shape" fill="#7DA6D3" fill-rule="nonzero"></path>
                    <rect id="Rectangle-path" fill="#E5ECF5" fill-rule="nonzero" x="289.356471" y="176.547816" width="14.1432471" height="19.8808252"></rect>
                    <path d="M302.809129,177.239563 L302.809129,195.723058 L290.047059,195.723058 L290.047059,177.239563 L302.809129,177.239563 Z M304.190306,175.856068 L288.665882,175.856068 L288.665882,197.106553 L304.190306,197.106553 L304.190306,175.856068 Z" id="Shape" fill="#7DA6D3" fill-rule="nonzero"></path>
                    <rect id="Rectangle-path" fill-opacity="0.1" fill="#7DA6D3" fill-rule="nonzero" x="144.181012" y="149.223786" width="23.6595529" height="3.69393204"></rect>
                    <rect id="Rectangle-path" stroke="#7DA6D3" fill="#E5ECF5" fill-rule="nonzero" x="190.740471" y="232.980583" width="57.9679765" height="4.84223301"></rect>
                    <rect id="Rectangle-path" stroke="#7DA6D3" fill="#E5ECF5" fill-rule="nonzero" x="195.574588" y="237.808981" width="48.3135529" height="44.8529126"></rect>
                    <path d="M219.731365,237.808981 L219.731365,282.661893" id="Shape" stroke="#7DA6D3" fill="#E5ECF5" fill-rule="nonzero"></path>
                    <rect id="Rectangle-path" fill="#7DA6D3" fill-rule="nonzero" opacity="0.2" x="200.325835" y="248.019175" width="14.2399294" height="14.540534"></rect>
                    <rect id="Rectangle-path" fill="#7DA6D3" fill-rule="nonzero" opacity="0.2" x="224.648353" y="248.019175" width="14.2399294" height="14.540534"></rect>
                    <rect id="Rectangle-path" fill="#7DA6D3" fill-rule="nonzero" opacity="0.4" x="195.436471" y="238.514563" width="48.5207294" height="2.07524272"></rect>
                    <rect id="Rectangle-path" fill="#FFFFFF" fill-rule="nonzero" x="201.016424" y="243.176942" width="12.8587529" height="15.9793689"></rect>
                    <path d="M213.170776,243.868689 L213.170776,258.464563 L201.651765,258.464563 L201.651765,243.868689 L213.115529,243.868689 L213.170776,243.868689 Z M214.496706,242.485194 L200.270588,242.485194 L200.270588,259.848058 L214.496706,259.848058 L214.496706,242.485194 Z" id="Shape" fill="#7DA6D3" fill-rule="nonzero"></path>
                    <rect id="Rectangle-path" fill="#FFFFFF" fill-rule="nonzero" x="225.338941" y="243.176942" width="12.8587529" height="15.9793689"></rect>
                    <path d="M237.562353,243.868689 L237.562353,258.464563 L226.084776,258.464563 L226.084776,243.868689 L237.562353,243.868689 Z M238.943529,242.485194 L224.648353,242.485194 L224.648353,259.848058 L238.943529,259.848058 L238.943529,242.485194 Z" id="Shape" fill="#7DA6D3" fill-rule="nonzero"></path>
                    <rect id="Rectangle-path" stroke="#7DA6D3" fill="#E5ECF5" fill-rule="nonzero" x="356.481647" y="232.980583" width="57.9679765" height="4.84223301"></rect>
                    <rect id="Rectangle-path" stroke="#7DA6D3" fill="#E5ECF5" fill-rule="nonzero" x="361.315765" y="237.808981" width="48.3135529" height="44.8529126"></rect>
                    <path d="M385.472541,237.808981 L385.472541,282.661893" id="Shape" stroke="#7DA6D3" fill="#E5ECF5" fill-rule="nonzero"></path>
                    <rect id="Rectangle-path" fill="#7DA6D3" fill-rule="nonzero" opacity="0.2" x="366.067012" y="248.019175" width="14.2399294" height="14.540534"></rect>
                    <rect id="Rectangle-path" fill="#7DA6D3" fill-rule="nonzero" opacity="0.2" x="390.389529" y="248.019175" width="14.2399294" height="14.540534"></rect>
                    <rect id="Rectangle-path" fill="#7DA6D3" fill-rule="nonzero" opacity="0.4" x="361.177647" y="238.514563" width="48.5207294" height="2.07524272"></rect>
                    <rect id="Rectangle-path" fill="#FFFFFF" fill-rule="nonzero" x="366.7576" y="243.176942" width="12.8587529" height="15.9793689"></rect>
                    <path d="M378.911953,243.868689 L378.911953,258.464563 L367.392941,258.464563 L367.392941,243.868689 L378.856706,243.868689 L378.911953,243.868689 Z M380.237882,242.485194 L366.011765,242.485194 L366.011765,259.848058 L380.237882,259.848058 L380.237882,242.485194 Z" id="Shape" fill="#7DA6D3" fill-rule="nonzero"></path>
                    <rect id="Rectangle-path" fill="#FFFFFF" fill-rule="nonzero" x="391.080118" y="243.176942" width="12.8587529" height="15.9793689"></rect>
                    <path d="M403.303529,243.868689 L403.303529,258.464563 L391.825953,258.464563 L391.825953,243.868689 L403.303529,243.868689 Z M404.684706,242.485194 L390.389529,242.485194 L390.389529,259.848058 L404.684706,259.848058 L404.684706,242.485194 Z" id="Shape" fill="#7DA6D3" fill-rule="nonzero"></path>
                    <rect id="Rectangle-path" stroke="#7DA6D3" fill="#E5ECF5" fill-rule="nonzero" x="39.7778824" y="173.268932" width="62.1115059" height="2.3381068"></rect>
                </g>
            </g>
        </g>
    </g>
</svg>